<svg xmlns="http://www.w3.org/2000/svg" viewBox="0 0 487 36"><path fill="#96f487" d="M40.865 17.951c0 5.936-1.654 10.363-4.962 13.233-3.357 2.919-8.514 4.378-15.47 4.378-6.957 0-12.114-1.46-15.422-4.33C1.654 28.362 0 23.935 0 17.952h6.227c0 2.189.34 4.183.973 5.886.632 1.751 2.043 3.21 4.135 4.378 2.092 1.216 5.108 1.8 9.097 1.8 4.038 0 7.103-.584 9.195-1.8 2.043-1.167 3.454-2.627 4.087-4.378.632-1.703.972-3.697.972-5.887V6.373H16.881V.827h23.984v17.124zM91.654 18.39c0 5.983-1.703 10.41-5.157 13.28C83.043 34.54 77.643 36 70.248 36 62.805 36 57.405 34.54 54 31.67c-3.455-2.87-5.157-7.297-5.157-13.28V.826h6.227v17.465c0 2.286.34 4.281 1.021 5.984.681 1.751 2.14 3.21 4.379 4.378 2.238 1.216 5.497 1.8 9.778 1.8 4.281 0 7.54-.584 9.779-1.8 2.237-1.216 3.697-2.676 4.427-4.427.68-1.703 1.021-3.697 1.021-5.935V.827h6.179v17.562zM105.372.827v28.654h26.27v5.546H99.146V.827h6.227zM138.6.827h6.227v34.2H138.6zM197.464 35.027h-7.054l-4.232-7.395h-24.86l-4.232 7.395h-7.103l19.8-34.2h7.881l19.8 34.2zm-23.74-29.043l-9.34 16.297h18.68l-9.34-16.297zM205.589 31.865h3.551v3.162h-3.551zM220.378 23.643c0 2.384.632 4.33 1.946 5.74 1.265 1.412 3.26 2.433 5.984 3.066 2.724.632 6.373.973 10.897.973 5.4 0 9.39-.584 11.967-1.752 2.579-1.119 3.892-3.065 3.892-5.74 0-1.8-.486-3.162-1.508-4.038-1.021-.876-2.675-1.508-4.962-1.849-2.286-.34-5.935-.68-10.849-.973-4.913-.292-8.708-.778-11.383-1.46-2.676-.632-4.622-1.653-5.74-2.967-1.168-1.313-1.752-3.162-1.752-5.497 0-3.357 1.508-5.692 4.573-7.103C226.459.681 231.129 0 237.503 0c6.372 0 11.14.973 14.302 2.87 3.162 1.946 4.767 4.914 4.767 8.903h-2.967c0-2.286-.633-4.135-1.897-5.497-1.265-1.314-3.114-2.287-5.595-2.87-2.53-.536-5.692-.828-9.584-.828-3.551 0-6.421.195-8.513.633-2.14.438-3.698 1.167-4.67 2.14-1.022.973-1.509 2.287-1.509 3.892 0 1.8.487 3.211 1.508 4.087.973.924 2.53 1.605 4.72 2.043 2.189.438 5.4.778 9.68 1.07 5.4.34 9.39.73 12.017 1.168 2.627.438 4.67 1.313 6.13 2.53 1.41 1.264 2.14 3.162 2.14 5.691 0 3.795-1.654 6.422-4.914 7.93C249.86 35.27 245.091 36 238.864 36c-4.864 0-8.854-.39-11.919-1.168-3.113-.73-5.448-2.043-7.054-3.843-1.654-1.8-2.432-4.232-2.48-7.346h2.967zM264.064 17.951c0-3.648.827-6.81 2.481-9.486 1.606-2.676 3.99-4.768 7.103-6.276C276.762.73 280.508 0 284.838 0c3.648 0 6.907.584 9.68 1.751 2.773 1.168 4.963 2.725 6.568 4.72 1.605 1.994 2.627 4.183 2.968 6.616h-2.968c-.34-1.85-1.168-3.552-2.481-5.157-1.314-1.606-3.162-2.87-5.449-3.892-2.335-.973-5.108-1.46-8.319-1.46-3.746 0-6.956.633-9.632 1.849-2.676 1.265-4.719 3.065-6.081 5.351-1.411 2.287-2.092 5.011-2.092 8.173 0 3.163.681 5.936 2.092 8.222 1.41 2.335 3.405 4.135 6.08 5.351 2.677 1.265 5.887 1.898 9.633 1.898 3.211 0 5.984-.487 8.32-1.508 2.286-1.022 4.134-2.336 5.448-3.941 1.313-1.605 2.14-3.308 2.481-5.157h3.016c-.389 2.433-1.41 4.622-3.016 6.616-1.605 1.995-3.795 3.6-6.568 4.768-2.773 1.216-6.032 1.8-9.68 1.8-4.33 0-8.076-.73-11.19-2.238-3.113-1.508-5.497-3.6-7.103-6.324-1.654-2.676-2.48-5.838-2.48-9.487zM347.448 16.687V.973h2.822v34.054h-2.822V19.314h-33.08v15.713h-2.823V.973h2.822v15.714h33.081zM378.68 36c-4.426 0-8.221-.73-11.335-2.238-3.162-1.46-5.545-3.551-7.15-6.275-1.606-2.725-2.433-5.887-2.433-9.536 0-3.648.827-6.81 2.432-9.486 1.606-2.676 3.99-4.768 7.151-6.276C370.46.73 374.254 0 378.681 0c4.427 0 8.173.73 11.335 2.19 3.162 1.507 5.546 3.6 7.151 6.275 1.605 2.724 2.433 5.886 2.433 9.486 0 3.649-.828 6.811-2.433 9.487-1.605 2.724-3.99 4.816-7.151 6.324C386.854 35.27 383.108 36 378.68 36zm0-2.578c3.747 0 6.957-.633 9.633-1.898 2.676-1.216 4.768-3.016 6.178-5.351 1.363-2.286 2.092-5.06 2.092-8.222s-.73-5.935-2.092-8.221c-1.41-2.287-3.454-4.087-6.13-5.303-2.675-1.216-5.934-1.849-9.68-1.849-3.746 0-7.006.633-9.681 1.849-2.676 1.216-4.72 3.016-6.13 5.303-1.411 2.286-2.14 5.06-2.14 8.221 0 3.211.729 5.984 2.14 8.27 1.41 2.336 3.454 4.136 6.13 5.352 2.675 1.216 5.935 1.849 9.68 1.849zM427.475 36c-4.427 0-8.221-.73-11.335-2.238-3.162-1.46-5.546-3.551-7.151-6.275-1.606-2.725-2.433-5.887-2.433-9.536 0-3.648.827-6.81 2.433-9.486 1.605-2.676 3.989-4.768 7.151-6.276C419.254.73 423.048 0 427.475 0c4.427 0 8.173.73 11.335 2.19 3.162 1.507 5.546 3.6 7.152 6.275 1.605 2.724 2.432 5.886 2.432 9.486 0 3.649-.827 6.811-2.432 9.487-1.606 2.724-3.99 4.816-7.152 6.324S431.902 36 427.475 36zm0-2.578c3.746 0 6.957-.633 9.633-1.898 2.675-1.216 4.767-3.016 6.178-5.351 1.362-2.286 2.092-5.06 2.092-8.222s-.73-5.935-2.092-8.221c-1.41-2.287-3.454-4.087-6.13-5.303-2.675-1.216-5.935-1.849-9.68-1.849-3.747 0-7.006.633-9.682 1.849s-4.719 3.016-6.13 5.303c-1.41 2.286-2.14 5.06-2.14 8.221 0 3.211.73 5.984 2.14 8.27 1.411 2.336 3.454 4.136 6.13 5.352 2.676 1.216 5.935 1.849 9.681 1.849zM458.659.973v31.476h27.973v2.578h-30.795V.973h2.822z"/></svg>
